<svg id="svg" version="1.1" xmlns="http://www.w3.org/2000/svg" xmlns:xlink="http://www.w3.org/1999/xlink" width="400" height="386.0696517412935" viewBox="0, 0, 400,386.0696517412935"><g id="svgg"><path id="path0" d="M100.492 12.010 C 99.383 12.195,98.167 12.597,97.790 12.903 C 97.413 13.209,96.537 13.924,95.845 14.490 C 93.599 16.327,92.012 19.200,91.543 22.275 C 91.242 24.248,91.118 64.459,91.114 161.271 C 91.111 236.192,90.977 297.697,90.816 297.949 C 90.050 299.155,88.113 299.228,56.249 299.256 C 38.584 299.271,23.263 299.437,22.201 299.624 C 17.076 300.527,16.533 300.694,15.506 301.678 C 14.918 302.242,14.270 302.703,14.066 302.703 C 13.476 302.703,10.404 306.845,9.980 308.213 C 9.054 311.201,9.814 325.111,11.031 327.466 C 11.357 328.095,12.112 330.311,12.711 332.391 C 13.309 334.470,14.074 336.677,14.410 337.294 C 14.745 337.912,15.227 338.851,15.480 339.382 C 17.972 344.614,18.691 345.961,19.705 347.297 C 20.349 348.147,21.304 349.450,21.826 350.193 C 22.349 350.936,23.169 352.098,23.647 352.775 C 24.126 353.452,25.292 354.641,26.240 355.419 C 27.187 356.196,28.142 357.055,28.363 357.328 C 28.584 357.600,29.720 358.441,30.888 359.196 C 32.056 359.950,33.359 360.893,33.784 361.290 C 35.949 363.316,42.031 365.754,48.456 367.171 C 51.849 367.919,53.545 367.937,120.423 367.945 L 188.916 367.954 190.917 366.626 C 194.869 364.002,194.986 358.556,191.147 355.869 L 189.382 354.633 138.147 354.440 C 83.304 354.234,84.892 354.297,86.959 352.382 C 87.505 351.876,88.409 350.785,88.968 349.959 C 90.767 347.297,91.831 345.775,92.584 344.788 C 93.662 343.375,95.751 339.286,95.752 338.589 C 95.753 338.258,96.187 337.399,96.718 336.680 C 97.249 335.960,97.683 335.181,97.683 334.949 C 97.683 334.716,98.015 333.876,98.420 333.082 C 98.825 332.287,99.372 330.730,99.637 329.622 C 99.901 328.513,100.412 326.911,100.773 326.062 C 101.133 325.212,101.551 323.424,101.700 322.087 C 101.850 320.750,102.286 318.926,102.668 318.033 C 103.166 316.871,103.499 314.432,103.839 309.464 C 104.101 305.644,104.430 302.343,104.571 302.128 C 104.711 301.913,104.913 239.566,105.019 163.579 C 105.210 27.378,105.223 25.413,105.962 24.872 C 106.605 24.402,122.103 24.324,215.118 24.324 L 323.525 24.324 324.021 25.193 C 324.408 25.869,324.560 32.181,324.710 53.698 L 324.903 81.335 325.926 82.656 C 328.346 85.782,330.112 86.549,333.448 85.923 C 335.475 85.543,338.107 82.711,338.424 80.570 C 338.555 79.683,338.607 66.014,338.540 50.193 L 338.417 21.429 337.117 19.041 C 334.778 14.748,331.892 12.498,327.999 11.935 C 324.967 11.496,103.135 11.569,100.492 12.010 M171.815 52.496 C 168.594 53.172,166.074 54.143,165.241 55.030 C 164.400 55.925,164.096 55.985,160.397 55.985 C 154.655 55.985,151.660 57.606,148.626 62.355 C 146.246 66.080,146.128 66.204,143.764 67.467 C 138.818 70.109,135.564 75.639,136.041 80.592 C 136.260 82.861,135.543 85.218,134.093 86.999 C 133.605 87.599,133.205 88.572,133.205 89.161 C 133.205 89.750,133.018 90.768,132.789 91.424 C 132.156 93.240,133.205 98.103,134.931 101.357 C 136.184 103.720,136.331 104.293,136.260 106.543 C 136.094 111.783,140.001 118.224,143.998 119.300 C 145.672 119.751,146.799 120.869,147.641 122.911 C 148.477 124.940,149.887 126.530,152.604 128.508 C 154.464 129.861,154.865 130.341,154.702 131.017 C 154.591 131.477,154.232 132.896,153.905 134.170 C 153.577 135.444,153.303 137.019,153.296 137.671 C 153.288 138.322,152.927 140.147,152.492 141.725 C 152.058 143.303,151.455 146.158,151.153 148.069 C 150.851 149.981,150.416 152.239,150.187 153.089 C 149.958 153.938,149.533 156.110,149.243 157.915 C 148.953 159.720,148.428 162.153,148.076 163.320 C 147.725 164.488,147.284 166.660,147.096 168.147 C 146.909 169.633,146.579 172.099,146.364 173.627 C 145.860 177.204,146.910 181.841,148.586 183.436 C 149.166 183.987,150.097 184.982,150.655 185.646 C 154.833 190.611,163.838 190.205,170.077 184.770 C 173.369 181.903,173.807 181.866,176.394 184.230 C 177.568 185.303,178.973 186.456,179.516 186.791 C 180.058 187.127,180.907 187.760,181.402 188.199 C 182.792 189.430,190.108 189.346,192.857 188.067 C 199.576 184.941,202.594 177.030,200.049 169.210 C 199.652 167.988,199.130 165.497,198.889 163.673 C 198.649 161.850,198.213 159.591,197.921 158.654 C 197.628 157.717,197.192 155.444,196.951 153.603 C 196.710 151.762,196.261 149.656,195.955 148.922 C 195.648 148.189,195.202 145.959,194.964 143.968 C 194.726 141.977,194.290 139.706,193.995 138.921 C 193.701 138.137,193.255 135.899,193.005 133.948 L 192.550 130.401 194.248 128.903 C 197.248 126.256,198.830 124.584,199.080 123.796 C 199.658 121.974,201.558 120.009,203.846 118.865 C 205.146 118.216,206.507 117.224,206.869 116.661 C 207.232 116.098,207.818 115.376,208.171 115.058 C 209.392 113.957,210.811 108.824,210.811 105.504 C 210.811 102.756,210.906 102.362,211.766 101.554 C 215.158 98.368,215.244 89.008,211.915 85.464 C 211.111 84.608,210.984 84.024,210.812 80.376 C 210.667 77.308,210.445 76.011,209.942 75.300 C 209.570 74.775,209.266 73.964,209.266 73.498 C 209.266 72.351,204.569 67.568,203.441 67.568 C 202.364 67.568,199.228 64.457,199.228 63.388 C 199.228 62.669,198.015 61.283,194.981 58.532 C 193.194 56.911,190.287 55.985,186.992 55.985 C 183.474 55.985,181.639 55.543,180.622 54.450 C 180.221 54.020,179.558 53.668,179.150 53.668 C 178.741 53.668,177.525 53.320,176.448 52.896 C 174.377 52.079,173.968 52.044,171.815 52.496 M180.255 66.804 C 181.180 67.224,182.145 67.568,182.398 67.568 C 187.002 67.568,197.822 78.082,199.030 83.728 C 199.182 84.440,199.663 85.827,200.098 86.811 C 201.375 89.697,201.217 98.145,199.838 100.783 C 199.290 101.831,198.842 103.056,198.842 103.505 C 198.842 103.954,198.499 104.803,198.079 105.392 C 197.660 105.981,197.145 106.913,196.936 107.463 C 195.413 111.469,184.666 119.678,180.920 119.697 C 180.265 119.700,178.687 119.955,177.413 120.263 C 173.419 121.227,165.257 120.282,162.934 118.587 C 162.403 118.200,161.336 117.674,160.563 117.419 C 159.372 117.027,155.795 114.365,154.162 112.656 C 151.763 110.145,149.856 107.747,149.624 106.950 C 149.470 106.419,148.935 105.376,148.435 104.633 C 145.669 100.519,145.541 86.191,148.240 82.759 C 148.677 82.204,149.035 81.559,149.035 81.326 C 149.035 79.826,153.023 74.931,157.281 71.205 C 158.733 69.934,162.452 67.955,163.411 67.942 C 163.892 67.935,165.241 67.520,166.409 67.020 C 169.378 65.747,177.642 65.618,180.255 66.804 M326.641 107.704 C 325.048 107.869,323.032 108.271,322.160 108.598 C 321.288 108.926,319.384 109.321,317.929 109.476 C 316.365 109.644,314.582 110.133,313.569 110.671 C 312.626 111.173,311.295 111.583,310.612 111.583 C 309.929 111.583,308.947 111.916,308.429 112.323 C 307.911 112.731,306.844 113.185,306.057 113.332 C 305.270 113.480,304.237 113.904,303.761 114.274 C 303.285 114.644,302.114 115.296,301.158 115.723 C 295.968 118.040,287.628 126.352,286.541 130.290 C 286.335 131.037,285.804 132.109,285.361 132.671 C 284.892 133.267,284.550 134.278,284.542 135.091 C 284.535 135.858,284.277 137.529,283.969 138.803 C 283.494 140.773,283.409 149.863,283.404 199.508 L 283.398 257.897 282.528 258.467 C 281.786 258.953,280.725 258.978,275.289 258.638 C 268.481 258.212,255.811 258.717,253.769 259.495 C 253.183 259.719,251.226 260.222,249.421 260.613 C 240.398 262.567,234.837 264.938,227.478 269.970 C 224.883 271.745,219.951 276.950,219.209 278.698 C 218.969 279.265,218.455 280.091,218.069 280.532 C 217.682 280.973,217.123 282.189,216.827 283.234 C 216.531 284.280,215.968 285.917,215.576 286.873 C 214.905 288.511,214.865 290.378,214.865 319.691 C 214.865 351.055,214.939 353.000,216.239 355.598 C 216.398 355.917,217.193 357.524,218.005 359.170 C 218.817 360.816,219.599 362.162,219.743 362.162 C 219.886 362.162,220.458 362.937,221.013 363.884 C 221.568 364.830,222.733 366.177,223.602 366.876 C 224.471 367.575,226.250 369.015,227.556 370.077 C 230.641 372.587,241.592 377.992,243.592 377.992 C 243.856 377.992,245.372 378.428,246.959 378.961 C 250.883 380.279,268.705 382.026,272.568 381.473 C 273.959 381.273,277.807 380.926,281.119 380.702 C 287.037 380.300,291.434 379.614,292.891 378.865 C 293.297 378.656,294.258 378.389,295.027 378.271 C 295.796 378.153,297.220 377.695,298.191 377.252 C 299.163 376.810,300.107 376.448,300.290 376.448 C 301.252 376.448,310.137 371.477,312.087 369.847 C 313.333 368.806,314.493 367.954,314.664 367.954 C 315.149 367.954,320.463 361.500,320.463 360.911 C 320.463 360.622,320.628 360.221,320.829 360.019 C 323.291 357.547,324.355 352.856,324.810 342.471 L 324.903 340.347 334.082 340.469 C 343.521 340.594,350.671 340.137,354.496 339.164 C 355.694 338.859,357.176 338.610,357.787 338.610 C 359.363 338.610,372.295 334.099,372.677 333.416 C 372.851 333.104,373.641 332.731,374.431 332.585 C 375.222 332.440,376.346 331.924,376.928 331.438 C 377.511 330.953,378.337 330.445,378.762 330.310 C 379.188 330.174,379.537 329.904,379.537 329.709 C 379.537 329.513,380.188 328.941,380.985 328.438 C 383.925 326.578,389.727 320.189,390.199 318.290 C 390.350 317.680,390.792 316.747,391.181 316.216 C 393.035 313.682,393.082 311.117,392.924 222.008 C 392.772 136.586,392.725 134.090,391.203 131.576 C 390.781 130.879,390.307 129.875,390.150 129.344 C 389.993 128.813,389.138 127.510,388.251 126.448 C 387.363 125.386,386.268 123.996,385.817 123.359 C 385.366 122.722,384.186 121.593,383.194 120.849 C 382.202 120.106,380.813 118.953,380.108 118.287 C 379.402 117.620,377.813 116.591,376.575 116.000 C 375.337 115.409,374.064 114.717,373.745 114.462 C 373.054 113.909,369.363 112.523,366.420 111.711 C 365.258 111.390,363.795 110.863,363.170 110.540 C 362.544 110.216,360.802 109.724,359.298 109.447 C 357.794 109.169,355.347 108.653,353.861 108.300 C 350.804 107.575,331.889 107.161,326.641 107.704 M350.579 121.676 C 352.172 121.904,353.777 122.250,354.147 122.446 C 354.516 122.642,356.340 123.128,358.201 123.526 C 366.995 125.405,377.191 132.109,378.388 136.799 C 378.615 137.689,378.977 138.869,379.192 139.422 C 380.781 143.503,377.540 149.516,371.616 153.475 C 368.101 155.824,360.828 159.020,358.308 159.322 C 357.349 159.437,355.523 159.877,354.251 160.299 C 348.602 162.175,326.365 161.989,320.592 160.018 C 319.069 159.498,317.540 159.073,317.192 159.073 C 316.844 159.073,315.825 158.739,314.927 158.329 C 314.029 157.920,312.778 157.460,312.149 157.308 C 311.519 157.155,310.549 156.712,309.993 156.324 C 309.436 155.936,308.539 155.450,307.999 155.244 C 306.619 154.719,302.843 151.748,300.711 149.508 C 295.966 144.523,296.952 135.095,302.590 131.549 C 302.856 131.381,303.615 130.750,304.277 130.146 C 306.655 127.973,313.766 124.516,317.181 123.872 C 318.243 123.672,320.185 123.160,321.496 122.734 C 326.520 121.101,342.498 120.520,350.579 121.676 M175.830 134.093 C 178.916 133.649,179.122 133.850,179.422 137.600 C 179.526 138.899,179.923 140.831,180.305 141.894 C 180.687 142.956,181.118 145.041,181.264 146.527 C 181.409 148.012,181.864 150.234,182.275 151.463 C 182.685 152.692,183.180 155.212,183.375 157.062 C 183.570 158.911,183.985 161.033,184.298 161.776 C 184.610 162.519,185.063 164.758,185.305 166.751 C 185.546 168.744,185.910 170.687,186.115 171.069 C 188.360 175.265,185.277 173.681,179.062 167.446 C 173.170 161.535,174.247 161.436,167.141 168.544 C 162.385 173.300,162.150 173.478,161.189 173.040 C 160.585 172.764,160.298 172.406,160.465 172.136 C 160.617 171.890,160.972 170.283,161.254 168.566 C 161.811 165.174,162.281 162.830,162.887 160.425 C 163.532 157.868,164.152 154.707,164.260 153.437 C 164.315 152.779,164.477 152.053,164.619 151.823 C 164.761 151.593,165.054 150.134,165.269 148.579 C 165.897 144.060,166.239 142.331,166.671 141.506 C 166.893 141.081,167.184 139.640,167.317 138.303 C 167.714 134.319,168.640 133.413,171.619 134.095 C 172.655 134.332,174.172 134.331,175.830 134.093 M301.544 167.206 C 302.500 167.823,303.716 168.525,304.247 168.766 C 307.690 170.332,310.415 171.397,311.583 171.632 C 312.326 171.781,313.132 172.063,313.374 172.257 C 313.616 172.451,315.266 172.850,317.042 173.144 C 318.818 173.438,320.878 173.934,321.622 174.247 C 325.087 175.706,349.442 175.823,353.668 174.402 C 354.624 174.080,356.905 173.650,358.737 173.445 C 360.570 173.241,362.828 172.714,363.757 172.275 C 364.685 171.836,366.058 171.379,366.808 171.258 C 367.557 171.138,368.468 170.692,368.831 170.269 C 369.194 169.845,369.898 169.498,370.395 169.498 C 370.893 169.498,372.619 168.803,374.231 167.954 C 378.369 165.774,379.537 166.104,379.537 169.453 C 379.537 176.762,367.938 185.344,355.019 187.595 C 353.745 187.817,351.573 188.263,350.193 188.586 C 344.767 189.856,327.813 189.279,321.831 187.622 C 320.344 187.210,318.742 186.873,318.271 186.873 C 317.801 186.873,316.598 186.438,315.600 185.907 C 314.602 185.376,313.530 184.942,313.218 184.942 C 311.164 184.942,302.418 179.384,300.664 176.964 C 298.792 174.381,298.570 173.982,297.849 171.909 C 297.232 170.135,297.208 169.699,297.656 168.435 C 298.638 165.661,298.983 165.552,301.544 167.206 M300.370 193.996 C 300.625 194.303,301.472 194.759,302.251 195.009 C 303.030 195.258,304.015 195.762,304.440 196.129 C 305.244 196.823,307.367 197.634,311.503 198.825 C 312.840 199.210,314.230 199.789,314.592 200.112 C 314.960 200.440,316.444 200.823,317.954 200.978 C 319.440 201.131,321.786 201.604,323.166 202.030 C 326.313 202.999,348.224 203.254,351.351 202.358 C 352.307 202.084,354.739 201.639,356.757 201.368 C 358.774 201.098,361.293 200.524,362.355 200.094 C 363.417 199.663,365.477 198.940,366.933 198.486 C 368.389 198.033,370.213 197.337,370.987 196.941 C 371.761 196.545,373.176 195.826,374.131 195.344 C 375.087 194.862,376.173 194.208,376.546 193.891 C 379.320 191.528,380.496 196.830,378.230 201.486 C 377.428 203.133,372.039 208.880,371.295 208.880 C 371.087 208.880,370.120 209.380,369.146 209.992 C 368.172 210.603,366.867 211.222,366.247 211.367 C 365.626 211.512,364.691 211.968,364.168 212.379 C 363.644 212.791,362.875 213.127,362.458 213.127 C 362.041 213.127,361.152 213.373,360.483 213.674 C 359.814 213.975,358.745 214.304,358.108 214.405 C 355.354 214.844,352.183 215.535,350.463 216.071 C 344.706 217.864,328.752 216.965,318.726 214.283 C 317.876 214.055,316.292 213.644,315.205 213.368 C 314.118 213.092,312.702 212.491,312.057 212.032 C 311.412 211.573,310.766 211.197,310.622 211.197 C 307.503 211.197,299.047 203.619,298.213 200.078 C 297.058 195.167,298.340 191.550,300.370 193.996 M300.356 221.389 C 301.445 222.353,306.219 224.710,307.081 224.710 C 307.543 224.710,308.757 225.156,309.779 225.700 C 312.578 227.189,316.858 228.489,319.884 228.767 C 321.371 228.904,323.369 229.259,324.324 229.556 C 328.333 230.799,347.181 231.067,350.222 229.923 C 350.982 229.637,352.893 229.290,354.470 229.151 C 356.046 229.011,358.597 228.477,360.139 227.962 C 361.680 227.448,363.244 227.025,363.613 227.023 C 363.983 227.022,365.154 226.593,366.216 226.070 C 367.278 225.548,368.497 225.115,368.926 225.109 C 369.646 225.097,374.409 222.858,376.293 221.644 C 378.233 220.395,380.348 222.641,379.477 225.025 C 379.298 225.517,379.151 226.305,379.151 226.777 C 379.151 228.248,377.883 230.213,375.283 232.775 C 371.816 236.191,371.370 236.556,370.270 236.875 C 369.739 237.029,368.958 237.467,368.533 237.850 C 367.824 238.488,366.013 239.236,361.390 240.800 C 360.434 241.123,358.871 241.703,357.915 242.089 C 356.959 242.475,354.701 242.914,352.896 243.065 C 351.091 243.215,349.028 243.578,348.312 243.870 C 346.748 244.509,332.769 244.610,330.309 244.001 C 329.459 243.790,326.731 243.369,324.245 243.065 C 321.759 242.760,319.327 242.255,318.839 241.941 C 318.352 241.628,316.998 241.106,315.830 240.781 C 312.188 239.769,309.105 238.574,308.301 237.863 C 307.876 237.488,307.207 237.067,306.814 236.927 C 303.838 235.872,298.069 229.368,298.069 227.067 C 298.069 226.544,297.870 225.566,297.627 224.893 C 297.058 223.318,297.432 221.860,298.544 221.324 C 299.697 220.769,299.653 220.767,300.356 221.389 M300.715 249.073 C 301.383 249.306,301.931 249.639,301.931 249.814 C 301.931 249.988,302.786 250.415,303.831 250.762 C 304.877 251.110,305.931 251.634,306.175 251.927 C 306.418 252.220,307.170 252.579,307.845 252.725 C 308.521 252.871,309.681 253.293,310.425 253.663 C 311.168 254.033,312.471 254.461,313.320 254.614 C 314.170 254.767,315.820 255.235,316.988 255.653 C 324.012 258.167,343.365 258.732,354.826 256.758 C 357.699 256.263,365.676 254.117,366.171 253.705 C 366.426 253.494,367.493 253.129,368.542 252.894 C 369.592 252.658,370.714 252.230,371.036 251.941 C 371.358 251.652,372.360 251.122,373.263 250.763 C 374.165 250.403,374.903 249.968,374.903 249.795 C 374.903 249.162,377.455 248.610,378.516 249.014 C 379.848 249.520,380.114 252.505,378.983 254.253 C 378.706 254.681,378.361 255.571,378.216 256.231 C 378.071 256.892,377.527 257.832,377.007 258.320 C 376.487 258.808,376.062 259.396,376.062 259.625 C 376.062 260.215,370.065 264.865,369.304 264.865 C 369.043 264.865,368.412 265.193,367.902 265.595 C 367.392 265.996,366.195 266.550,365.244 266.826 C 364.292 267.102,363.125 267.622,362.650 267.982 C 362.175 268.341,360.816 268.757,359.630 268.905 C 358.444 269.053,356.835 269.454,356.053 269.796 C 355.272 270.138,353.330 270.545,351.737 270.700 C 350.145 270.856,346.757 271.230,344.208 271.532 C 339.373 272.106,337.562 272.042,326.712 270.917 C 323.125 270.546,320.957 270.146,320.535 269.779 C 320.177 269.468,318.866 269.115,317.622 268.993 C 316.124 268.847,314.886 268.449,313.954 267.814 C 313.181 267.286,311.853 266.656,311.004 266.414 C 310.154 266.171,308.737 265.506,307.854 264.936 C 304.246 262.608,300.772 260.112,300.772 259.848 C 300.772 259.694,300.362 258.963,299.860 258.223 C 297.506 254.754,296.813 249.749,298.588 249.033 C 299.046 248.849,299.438 248.687,299.460 248.673 C 299.481 248.660,300.046 248.839,300.715 249.073 M277.358 272.603 C 281.579 272.858,284.360 273.208,285.273 273.597 C 286.046 273.927,287.690 274.344,288.925 274.524 C 290.160 274.705,291.811 275.185,292.593 275.592 C 293.375 276.000,294.827 276.454,295.818 276.602 C 296.809 276.751,297.840 277.137,298.109 277.460 C 298.550 277.992,299.235 278.416,302.709 280.309 C 314.028 286.477,312.563 300.584,300.000 306.401 C 299.257 306.745,298.388 307.237,298.069 307.495 C 297.354 308.073,290.714 310.286,288.610 310.647 C 287.761 310.793,286.787 311.056,286.447 311.231 C 282.991 313.009,258.396 313.321,254.176 311.640 C 253.076 311.201,251.005 310.639,249.576 310.390 C 248.146 310.141,246.440 309.629,245.785 309.253 C 245.130 308.877,243.986 308.446,243.243 308.296 C 242.500 308.145,241.631 307.795,241.313 307.517 C 240.994 307.240,239.548 306.385,238.099 305.618 C 230.842 301.775,226.369 292.562,229.598 288.106 C 230.012 287.534,230.564 286.539,230.825 285.895 C 231.085 285.252,231.935 284.209,232.714 283.579 C 233.493 282.948,234.506 282.042,234.966 281.564 C 235.426 281.086,235.966 280.695,236.166 280.695 C 236.366 280.695,237.128 280.247,237.859 279.699 C 239.776 278.264,242.486 276.939,244.137 276.629 C 244.923 276.481,245.983 276.033,246.493 275.632 C 247.002 275.231,247.868 274.903,248.417 274.903 C 248.965 274.903,250.675 274.484,252.217 273.970 C 256.811 272.441,266.228 271.928,277.358 272.603 M378.896 276.934 C 382.453 279.535,376.199 288.985,368.527 292.600 C 367.675 293.002,366.753 293.602,366.478 293.933 C 366.203 294.263,365.251 294.657,364.362 294.807 C 363.473 294.958,362.139 295.406,361.398 295.803 C 360.656 296.200,359.573 296.525,358.990 296.525 C 358.408 296.525,357.276 296.777,356.475 297.085 C 352.067 298.779,343.100 299.430,332.637 298.816 C 324.343 298.329,324.879 298.682,324.605 293.534 C 324.484 291.250,324.097 288.536,323.744 287.502 C 322.718 284.487,323.084 284.398,333.061 285.231 C 342.697 286.036,357.592 284.419,363.911 281.883 C 364.966 281.460,366.525 280.929,367.375 280.704 C 368.224 280.479,370.569 279.447,372.587 278.410 C 376.420 276.441,377.784 276.121,378.896 276.934 M378.114 303.919 C 384.055 307.046,373.364 320.000,362.548 322.781 C 361.805 322.972,360.241 323.468,359.073 323.883 C 351.549 326.560,326.495 327.702,325.058 325.434 C 324.558 324.644,324.622 313.370,325.130 312.863 C 325.422 312.570,329.247 312.505,337.800 312.649 C 350.031 312.854,350.057 312.852,354.079 311.850 C 356.295 311.298,359.296 310.659,360.747 310.430 C 362.199 310.201,363.762 309.771,364.222 309.475 C 364.682 309.179,365.753 308.812,366.602 308.658 C 367.930 308.418,371.482 306.885,373.359 305.742 C 373.678 305.549,374.491 305.135,375.167 304.824 C 375.842 304.513,376.504 304.082,376.637 303.867 C 376.944 303.371,377.082 303.376,378.114 303.919 M89.112 313.205 C 89.764 313.857,89.687 315.857,88.942 317.617 C 88.594 318.439,88.001 320.241,87.625 321.622 C 85.978 327.671,82.446 335.669,79.869 339.189 C 79.247 340.039,78.302 341.395,77.768 342.202 C 75.339 345.880,67.852 352.124,65.871 352.124 C 65.465 352.124,64.160 352.589,62.972 353.157 C 60.336 354.418,53.194 354.634,50.386 353.538 C 49.537 353.206,48.060 352.735,47.104 352.492 C 46.149 352.248,45.169 351.886,44.928 351.689 C 44.686 351.491,43.644 350.883,42.611 350.338 C 41.579 349.793,40.290 349.107,39.747 348.814 C 38.388 348.080,31.660 341.108,31.660 340.433 C 31.660 340.133,31.296 339.469,30.851 338.959 C 30.406 338.448,29.794 337.553,29.490 336.969 C 29.186 336.385,28.776 335.907,28.579 335.907 C 28.382 335.907,28.102 335.256,27.956 334.459 C 27.811 333.663,27.370 332.552,26.976 331.990 C 26.582 331.429,26.028 329.865,25.745 328.515 C 25.461 327.166,25.022 325.676,24.769 325.203 C 24.268 324.270,23.185 317.306,23.173 314.949 C 23.167 313.792,23.346 313.416,24.035 313.139 C 25.440 312.575,88.545 312.638,89.112 313.205 M310.466 320.613 C 310.424 323.443,308.689 328.185,307.696 328.185 C 307.533 328.185,306.561 328.978,305.534 329.948 C 303.740 331.643,303.093 332.073,298.703 334.491 C 296.468 335.723,290.168 337.878,285.507 339.007 C 278.216 340.772,260.208 340.846,254.911 339.133 C 253.365 338.633,251.670 338.224,251.146 338.224 C 250.019 338.224,244.108 336.228,242.801 335.407 C 242.301 335.092,241.254 334.633,240.475 334.386 C 239.696 334.139,238.841 333.676,238.575 333.356 C 238.310 333.036,237.557 332.543,236.903 332.260 C 231.537 329.942,226.616 320.308,229.391 317.552 C 229.915 317.030,233.160 318.234,234.792 319.556 C 235.550 320.170,239.985 321.877,242.278 322.436 C 243.340 322.696,244.824 323.225,245.577 323.614 C 246.330 324.002,248.067 324.421,249.438 324.544 C 250.809 324.668,252.973 325.146,254.247 325.607 C 257.412 326.753,280.806 326.908,283.784 325.804 C 284.739 325.449,287.147 324.977,289.134 324.755 C 291.346 324.508,293.227 324.069,293.983 323.623 C 294.662 323.222,295.872 322.771,296.671 322.621 C 298.356 322.305,303.801 320.195,304.594 319.551 C 308.954 316.009,310.531 316.294,310.466 320.613 M231.766 345.174 C 232.306 345.598,232.913 345.946,233.115 345.946 C 233.317 345.946,234.072 346.342,234.792 346.827 C 235.511 347.311,236.853 347.930,237.773 348.203 C 238.693 348.476,239.996 349.034,240.669 349.444 C 241.342 349.855,242.420 350.191,243.065 350.192 C 243.710 350.192,244.927 350.565,245.768 351.019 C 246.651 351.496,248.765 352.045,250.772 352.319 C 252.683 352.579,255.290 353.085,256.564 353.443 C 259.925 354.387,279.184 354.479,282.046 353.565 C 283.108 353.226,285.106 352.839,286.486 352.705 C 289.056 352.456,293.609 351.237,298.069 349.604 C 299.450 349.098,301.014 348.566,301.544 348.420 C 302.075 348.274,304.056 347.284,305.947 346.221 C 310.355 343.740,310.669 343.871,310.489 348.119 C 310.403 350.125,310.141 351.486,309.718 352.124 C 309.365 352.654,308.855 353.595,308.584 354.214 C 307.893 355.795,305.953 357.702,303.542 359.171 C 302.410 359.861,300.882 360.816,300.146 361.293 C 299.410 361.771,298.598 362.163,298.342 362.164 C 298.086 362.164,297.332 362.497,296.666 362.903 C 294.492 364.229,288.307 366.123,284.363 366.671 C 282.239 366.966,279.295 367.383,277.819 367.596 C 274.615 368.061,261.611 367.838,258.880 367.272 C 257.819 367.052,255.380 366.617,253.460 366.307 C 251.541 365.996,249.456 365.483,248.827 365.167 C 248.198 364.850,246.848 364.387,245.827 364.138 C 244.806 363.888,243.332 363.342,242.551 362.923 C 241.770 362.505,240.980 362.162,240.795 362.162 C 240.610 362.162,239.943 361.728,239.312 361.197 C 238.681 360.666,237.901 360.232,237.578 360.232 C 236.760 360.232,232.076 355.630,230.365 353.145 C 227.441 348.899,228.541 342.637,231.766 345.174 " stroke="none" fill="orange" fill-rule="evenodd"></path><path id="path1" d="M0.000 193.050 L 0.000 386.100 200.000 386.100 L 400.000 386.100 400.000 193.050 L 400.000 0.000 200.000 0.000 L 0.000 0.000 0.000 193.050 M327.999 11.935 C 331.892 12.498,334.778 14.748,337.117 19.041 L 338.417 21.429 338.540 50.193 C 338.607 66.014,338.555 79.683,338.424 80.570 C 338.107 82.711,335.475 85.543,333.448 85.923 C 330.112 86.549,328.346 85.782,325.926 82.656 L 324.903 81.335 324.710 53.698 C 324.560 32.181,324.408 25.869,324.021 25.193 L 323.525 24.324 215.118 24.324 C 122.103 24.324,106.605 24.402,105.962 24.872 C 105.223 25.413,105.210 27.378,105.019 163.579 C 104.913 239.566,104.711 301.913,104.571 302.128 C 104.430 302.343,104.101 305.644,103.839 309.464 C 103.499 314.432,103.166 316.871,102.668 318.033 C 102.286 318.926,101.850 320.750,101.700 322.087 C 101.551 323.424,101.133 325.212,100.773 326.062 C 100.412 326.911,99.901 328.513,99.637 329.622 C 99.372 330.730,98.825 332.287,98.420 333.082 C 98.015 333.876,97.683 334.716,97.683 334.949 C 97.683 335.181,97.249 335.960,96.718 336.680 C 96.187 337.399,95.753 338.258,95.752 338.589 C 95.751 339.286,93.662 343.375,92.584 344.788 C 91.831 345.775,90.767 347.297,88.968 349.959 C 88.409 350.785,87.505 351.876,86.959 352.382 C 84.892 354.297,83.304 354.234,138.147 354.440 L 189.382 354.633 191.147 355.869 C 194.986 358.556,194.869 364.002,190.917 366.626 L 188.916 367.954 120.423 367.945 C 53.545 367.937,51.849 367.919,48.456 367.171 C 42.031 365.754,35.949 363.316,33.784 361.290 C 33.359 360.893,32.056 359.950,30.888 359.196 C 29.720 358.441,28.584 357.600,28.363 357.328 C 28.142 357.055,27.187 356.196,26.240 355.419 C 25.292 354.641,24.126 353.452,23.647 352.775 C 23.169 352.098,22.349 350.936,21.826 350.193 C 21.304 349.450,20.349 348.147,19.705 347.297 C 18.691 345.961,17.972 344.614,15.480 339.382 C 15.227 338.851,14.745 337.912,14.410 337.294 C 14.074 336.677,13.309 334.470,12.711 332.391 C 12.112 330.311,11.357 328.095,11.031 327.466 C 9.814 325.111,9.054 311.201,9.980 308.213 C 10.404 306.845,13.476 302.703,14.066 302.703 C 14.270 302.703,14.918 302.242,15.506 301.678 C 16.533 300.694,17.076 300.527,22.201 299.624 C 23.263 299.437,38.584 299.271,56.249 299.256 C 88.113 299.228,90.050 299.155,90.816 297.949 C 90.977 297.697,91.111 236.192,91.114 161.271 C 91.118 64.459,91.242 24.248,91.543 22.275 C 92.012 19.200,93.599 16.327,95.845 14.490 C 96.537 13.924,97.413 13.209,97.790 12.903 C 98.167 12.597,99.383 12.195,100.492 12.010 C 103.135 11.569,324.967 11.496,327.999 11.935 M176.448 52.896 C 177.525 53.320,178.741 53.668,179.150 53.668 C 179.558 53.668,180.221 54.020,180.622 54.450 C 181.639 55.543,183.474 55.985,186.992 55.985 C 190.287 55.985,193.194 56.911,194.981 58.532 C 198.015 61.283,199.228 62.669,199.228 63.388 C 199.228 64.457,202.364 67.568,203.441 67.568 C 204.569 67.568,209.266 72.351,209.266 73.498 C 209.266 73.964,209.570 74.775,209.942 75.300 C 210.445 76.011,210.667 77.308,210.812 80.376 C 210.984 84.024,211.111 84.608,211.915 85.464 C 215.244 89.008,215.158 98.368,211.766 101.554 C 210.906 102.362,210.811 102.756,210.811 105.504 C 210.811 108.824,209.392 113.957,208.171 115.058 C 207.818 115.376,207.232 116.098,206.869 116.661 C 206.507 117.224,205.146 118.216,203.846 118.865 C 201.558 120.009,199.658 121.974,199.080 123.796 C 198.830 124.584,197.248 126.256,194.248 128.903 L 192.550 130.401 193.005 133.948 C 193.255 135.899,193.701 138.137,193.995 138.921 C 194.290 139.706,194.726 141.977,194.964 143.968 C 195.202 145.959,195.648 148.189,195.955 148.922 C 196.261 149.656,196.710 151.762,196.951 153.603 C 197.192 155.444,197.628 157.717,197.921 158.654 C 198.213 159.591,198.649 161.850,198.889 163.673 C 199.130 165.497,199.652 167.988,200.049 169.210 C 202.594 177.030,199.576 184.941,192.857 188.067 C 190.108 189.346,182.792 189.430,181.402 188.199 C 180.907 187.760,180.058 187.127,179.516 186.791 C 178.973 186.456,177.568 185.303,176.394 184.230 C 173.807 181.866,173.369 181.903,170.077 184.770 C 163.838 190.205,154.833 190.611,150.655 185.646 C 150.097 184.982,149.166 183.987,148.586 183.436 C 146.910 181.841,145.860 177.204,146.364 173.627 C 146.579 172.099,146.909 169.633,147.096 168.147 C 147.284 166.660,147.725 164.488,148.076 163.320 C 148.428 162.153,148.953 159.720,149.243 157.915 C 149.533 156.110,149.958 153.938,150.187 153.089 C 150.416 152.239,150.851 149.981,151.153 148.069 C 151.455 146.158,152.058 143.303,152.492 141.725 C 152.927 140.147,153.288 138.322,153.296 137.671 C 153.303 137.019,153.577 135.444,153.905 134.170 C 154.232 132.896,154.591 131.477,154.702 131.017 C 154.865 130.341,154.464 129.861,152.604 128.508 C 149.887 126.530,148.477 124.940,147.641 122.911 C 146.799 120.869,145.672 119.751,143.998 119.300 C 140.001 118.224,136.094 111.783,136.260 106.543 C 136.331 104.293,136.184 103.720,134.931 101.357 C 133.205 98.103,132.156 93.240,132.789 91.424 C 133.018 90.768,133.205 89.750,133.205 89.161 C 133.205 88.572,133.605 87.599,134.093 86.999 C 135.543 85.218,136.260 82.861,136.041 80.592 C 135.564 75.639,138.818 70.109,143.764 67.467 C 146.128 66.204,146.246 66.080,148.626 62.355 C 151.660 57.606,154.655 55.985,160.397 55.985 C 164.096 55.985,164.400 55.925,165.241 55.030 C 166.074 54.143,168.594 53.172,171.815 52.496 C 173.968 52.044,174.377 52.079,176.448 52.896 M166.409 67.020 C 165.241 67.520,163.892 67.935,163.411 67.942 C 162.452 67.955,158.733 69.934,157.281 71.205 C 153.023 74.931,149.035 79.826,149.035 81.326 C 149.035 81.559,148.677 82.204,148.240 82.759 C 145.541 86.191,145.669 100.519,148.435 104.633 C 148.935 105.376,149.470 106.419,149.624 106.950 C 149.856 107.747,151.763 110.145,154.162 112.656 C 155.795 114.365,159.372 117.027,160.563 117.419 C 161.336 117.674,162.403 118.200,162.934 118.587 C 165.257 120.282,173.419 121.227,177.413 120.263 C 178.687 119.955,180.265 119.700,180.920 119.697 C 183.428 119.684,189.410 115.964,193.277 112.012 C 195.971 109.259,196.506 108.594,196.936 107.463 C 197.145 106.913,197.660 105.981,198.079 105.392 C 198.499 104.803,198.842 103.954,198.842 103.505 C 198.842 103.056,199.290 101.831,199.838 100.783 C 201.217 98.145,201.375 89.697,200.098 86.811 C 199.663 85.827,199.182 84.440,199.030 83.728 C 197.822 78.082,187.002 67.568,182.398 67.568 C 182.145 67.568,181.180 67.224,180.255 66.804 C 177.642 65.618,169.378 65.747,166.409 67.020 M353.861 108.300 C 355.347 108.653,357.794 109.169,359.298 109.447 C 360.802 109.724,362.544 110.216,363.170 110.540 C 363.795 110.863,365.258 111.390,366.420 111.711 C 369.363 112.523,373.054 113.909,373.745 114.462 C 374.064 114.717,375.337 115.409,376.575 116.000 C 377.813 116.591,379.402 117.620,380.108 118.287 C 380.813 118.953,382.202 120.106,383.194 120.849 C 384.186 121.593,385.366 122.722,385.817 123.359 C 386.268 123.996,387.363 125.386,388.251 126.448 C 389.138 127.510,389.993 128.813,390.150 129.344 C 390.307 129.875,390.781 130.879,391.203 131.576 C 392.725 134.090,392.772 136.586,392.924 222.008 C 393.082 311.117,393.035 313.682,391.181 316.216 C 390.792 316.747,390.350 317.680,390.199 318.290 C 389.727 320.189,383.925 326.578,380.985 328.438 C 380.188 328.941,379.537 329.513,379.537 329.709 C 379.537 329.904,379.188 330.174,378.762 330.310 C 378.337 330.445,377.511 330.953,376.928 331.438 C 376.346 331.924,375.222 332.440,374.431 332.585 C 373.641 332.731,372.851 333.104,372.677 333.416 C 372.295 334.099,359.363 338.610,357.787 338.610 C 357.176 338.610,355.694 338.859,354.496 339.164 C 350.671 340.137,343.521 340.594,334.082 340.469 L 324.903 340.347 324.810 342.471 C 324.355 352.856,323.291 357.547,320.829 360.019 C 320.628 360.221,320.463 360.622,320.463 360.911 C 320.463 361.500,315.149 367.954,314.664 367.954 C 314.493 367.954,313.333 368.806,312.087 369.847 C 310.137 371.477,301.252 376.448,300.290 376.448 C 300.107 376.448,299.163 376.810,298.191 377.252 C 297.220 377.695,295.796 378.153,295.027 378.271 C 294.258 378.389,293.297 378.656,292.891 378.865 C 291.434 379.614,287.037 380.300,281.119 380.702 C 277.807 380.926,273.959 381.273,272.568 381.473 C 268.705 382.026,250.883 380.279,246.959 378.961 C 245.372 378.428,243.856 377.992,243.592 377.992 C 241.592 377.992,230.641 372.587,227.556 370.077 C 226.250 369.015,224.471 367.575,223.602 366.876 C 222.733 366.177,221.568 364.830,221.013 363.884 C 220.458 362.937,219.886 362.162,219.743 362.162 C 219.599 362.162,218.817 360.816,218.005 359.170 C 217.193 357.524,216.398 355.917,216.239 355.598 C 214.939 353.000,214.865 351.055,214.865 319.691 C 214.865 290.378,214.905 288.511,215.576 286.873 C 215.968 285.917,216.531 284.280,216.827 283.234 C 217.123 282.189,217.682 280.973,218.069 280.532 C 218.455 280.091,218.969 279.265,219.209 278.698 C 219.951 276.950,224.883 271.745,227.478 269.970 C 231.226 267.408,234.527 265.577,238.803 263.690 C 240.803 262.807,245.282 261.509,249.421 260.613 C 251.226 260.222,253.183 259.719,253.769 259.495 C 255.811 258.717,268.481 258.212,275.289 258.638 C 280.725 258.978,281.786 258.953,282.528 258.467 L 283.398 257.897 283.404 199.508 C 283.409 149.863,283.494 140.773,283.969 138.803 C 284.277 137.529,284.535 135.858,284.542 135.091 C 284.550 134.278,284.892 133.267,285.361 132.671 C 285.804 132.109,286.335 131.037,286.541 130.290 C 287.628 126.352,295.968 118.040,301.158 115.723 C 302.114 115.296,303.285 114.644,303.761 114.274 C 304.237 113.904,305.270 113.480,306.057 113.332 C 306.844 113.185,307.911 112.731,308.429 112.323 C 308.947 111.916,309.929 111.583,310.612 111.583 C 311.295 111.583,312.626 111.173,313.569 110.671 C 314.582 110.133,316.365 109.644,317.929 109.476 C 319.384 109.321,321.288 108.926,322.160 108.598 C 325.848 107.215,348.395 107.003,353.861 108.300 M333.784 121.134 C 328.601 121.370,323.748 122.002,321.496 122.734 C 320.185 123.160,318.243 123.672,317.181 123.872 C 313.766 124.516,306.655 127.973,304.277 130.146 C 303.615 130.750,302.856 131.381,302.590 131.549 C 296.952 135.095,295.966 144.523,300.711 149.508 C 302.843 151.748,306.619 154.719,307.999 155.244 C 308.539 155.450,309.436 155.936,309.993 156.324 C 310.549 156.712,311.519 157.155,312.149 157.308 C 312.778 157.460,314.029 157.920,314.927 158.329 C 315.825 158.739,316.844 159.073,317.192 159.073 C 317.540 159.073,319.069 159.498,320.592 160.018 C 326.365 161.989,348.602 162.175,354.251 160.299 C 355.523 159.877,357.349 159.437,358.308 159.322 C 360.828 159.020,368.101 155.824,371.616 153.475 C 377.540 149.516,380.781 143.503,379.192 139.422 C 378.977 138.869,378.615 137.689,378.388 136.799 C 377.191 132.109,366.995 125.405,358.201 123.526 C 356.340 123.128,354.516 122.642,354.147 122.446 C 352.438 121.540,341.021 120.804,333.784 121.134 M169.195 134.022 C 168.062 134.441,167.596 135.502,167.317 138.303 C 167.184 139.640,166.893 141.081,166.671 141.506 C 166.239 142.331,165.897 144.060,165.269 148.579 C 165.054 150.134,164.761 151.593,164.619 151.823 C 164.477 152.053,164.315 152.779,164.260 153.437 C 164.152 154.707,163.532 157.868,162.887 160.425 C 162.281 162.830,161.811 165.174,161.254 168.566 C 160.972 170.283,160.617 171.890,160.465 172.136 C 160.298 172.406,160.585 172.764,161.189 173.040 C 162.150 173.478,162.385 173.300,167.141 168.544 C 174.247 161.436,173.170 161.535,179.062 167.446 C 185.277 173.681,188.360 175.265,186.115 171.069 C 185.910 170.687,185.546 168.744,185.305 166.751 C 185.063 164.758,184.610 162.519,184.298 161.776 C 183.985 161.033,183.570 158.911,183.375 157.062 C 183.180 155.212,182.685 152.692,182.275 151.463 C 181.864 150.234,181.409 148.012,181.264 146.527 C 181.118 145.041,180.687 142.956,180.305 141.894 C 179.923 140.831,179.526 138.899,179.422 137.600 C 179.122 133.850,178.916 133.649,175.830 134.093 C 174.172 134.331,172.655 134.332,171.619 134.095 C 170.728 133.891,169.637 133.858,169.195 134.022 M298.552 166.506 C 297.371 167.988,297.130 169.843,297.849 171.909 C 298.570 173.982,298.792 174.381,300.664 176.964 C 302.418 179.384,311.164 184.942,313.218 184.942 C 313.530 184.942,314.602 185.376,315.600 185.907 C 316.598 186.438,317.801 186.873,318.271 186.873 C 318.742 186.873,320.344 187.210,321.831 187.622 C 327.813 189.279,344.767 189.856,350.193 188.586 C 351.573 188.263,353.745 187.817,355.019 187.595 C 367.938 185.344,379.537 176.762,379.537 169.453 C 379.537 166.104,378.369 165.774,374.231 167.954 C 372.619 168.803,370.893 169.498,370.395 169.498 C 369.898 169.498,369.194 169.845,368.831 170.269 C 368.468 170.692,367.557 171.138,366.808 171.258 C 366.058 171.379,364.685 171.836,363.757 172.275 C 362.828 172.714,360.570 173.241,358.737 173.445 C 356.905 173.650,354.624 174.080,353.668 174.402 C 349.442 175.823,325.087 175.706,321.622 174.247 C 320.878 173.934,318.818 173.438,317.042 173.144 C 315.266 172.850,313.616 172.451,313.374 172.257 C 313.132 172.063,312.326 171.781,311.583 171.632 C 310.415 171.397,307.690 170.332,304.247 168.766 C 303.716 168.525,302.500 167.823,301.544 167.206 C 299.574 165.934,299.097 165.822,298.552 166.506 M298.359 193.853 C 297.522 194.341,297.463 196.888,298.213 200.078 C 299.047 203.619,307.503 211.197,310.622 211.197 C 310.766 211.197,311.412 211.573,312.057 212.032 C 312.702 212.491,314.118 213.092,315.205 213.368 C 316.292 213.644,317.876 214.055,318.726 214.283 C 328.752 216.965,344.706 217.864,350.463 216.071 C 352.183 215.535,355.354 214.844,358.108 214.405 C 358.745 214.304,359.814 213.975,360.483 213.674 C 361.152 213.373,362.041 213.127,362.458 213.127 C 362.875 213.127,363.644 212.791,364.168 212.379 C 364.691 211.968,365.626 211.512,366.247 211.367 C 366.867 211.222,368.172 210.603,369.146 209.992 C 370.120 209.380,371.087 208.880,371.295 208.880 C 372.039 208.880,377.428 203.133,378.230 201.486 C 380.496 196.830,379.320 191.528,376.546 193.891 C 376.173 194.208,375.087 194.862,374.131 195.344 C 373.176 195.826,371.761 196.545,370.987 196.941 C 370.213 197.337,368.389 198.033,366.933 198.486 C 365.477 198.940,363.417 199.663,362.355 200.094 C 361.293 200.524,358.774 201.098,356.757 201.368 C 354.739 201.639,352.307 202.084,351.351 202.358 C 348.224 203.254,326.313 202.999,323.166 202.030 C 321.786 201.604,319.440 201.131,317.954 200.978 C 316.444 200.823,314.960 200.440,314.592 200.112 C 314.230 199.789,312.840 199.210,311.503 198.825 C 307.367 197.634,305.244 196.823,304.440 196.129 C 304.015 195.762,303.030 195.258,302.251 195.009 C 301.472 194.759,300.625 194.303,300.370 193.996 C 299.829 193.344,299.298 193.306,298.359 193.853 M298.544 221.324 C 297.432 221.860,297.058 223.318,297.627 224.893 C 297.870 225.566,298.069 226.544,298.069 227.067 C 298.069 229.368,303.838 235.872,306.814 236.927 C 307.207 237.067,307.876 237.488,308.301 237.863 C 309.105 238.574,312.188 239.769,315.830 240.781 C 316.998 241.106,318.352 241.628,318.839 241.941 C 319.327 242.255,321.759 242.760,324.245 243.065 C 326.731 243.369,329.459 243.790,330.309 244.001 C 332.769 244.610,346.748 244.509,348.312 243.870 C 349.028 243.578,351.091 243.215,352.896 243.065 C 354.701 242.914,356.959 242.475,357.915 242.089 C 358.871 241.703,360.434 241.123,361.390 240.800 C 366.013 239.236,367.824 238.488,368.533 237.850 C 368.958 237.467,369.739 237.029,370.270 236.875 C 371.370 236.556,371.816 236.191,375.283 232.775 C 377.883 230.213,379.151 228.248,379.151 226.777 C 379.151 226.305,379.298 225.517,379.477 225.025 C 380.348 222.641,378.233 220.395,376.293 221.644 C 374.409 222.858,369.646 225.097,368.926 225.109 C 368.497 225.115,367.278 225.548,366.216 226.070 C 365.154 226.593,363.983 227.022,363.613 227.023 C 363.244 227.025,361.680 227.448,360.139 227.962 C 358.597 228.477,356.046 229.011,354.470 229.151 C 352.893 229.290,350.982 229.637,350.222 229.923 C 347.181 231.067,328.333 230.799,324.324 229.556 C 323.369 229.259,321.371 228.904,319.884 228.767 C 316.858 228.489,312.578 227.189,309.779 225.700 C 308.757 225.156,307.543 224.710,307.081 224.710 C 306.219 224.710,301.445 222.353,300.356 221.389 C 299.653 220.767,299.697 220.769,298.544 221.324 M298.588 249.033 C 296.813 249.749,297.506 254.754,299.860 258.223 C 300.362 258.963,300.772 259.694,300.772 259.848 C 300.772 260.112,304.246 262.608,307.854 264.936 C 308.737 265.506,310.154 266.171,311.004 266.414 C 311.853 266.656,313.181 267.286,313.954 267.814 C 314.886 268.449,316.124 268.847,317.622 268.993 C 318.866 269.115,320.177 269.468,320.535 269.779 C 320.957 270.146,323.125 270.546,326.712 270.917 C 337.562 272.042,339.373 272.106,344.208 271.532 C 346.757 271.230,350.145 270.856,351.737 270.700 C 353.330 270.545,355.272 270.138,356.053 269.796 C 356.835 269.454,358.444 269.053,359.630 268.905 C 360.816 268.757,362.175 268.341,362.650 267.982 C 363.125 267.622,364.292 267.102,365.244 266.826 C 366.195 266.550,367.392 265.996,367.902 265.595 C 368.412 265.193,369.043 264.865,369.304 264.865 C 370.065 264.865,376.062 260.215,376.062 259.625 C 376.062 259.396,376.487 258.808,377.007 258.320 C 377.527 257.832,378.071 256.892,378.216 256.231 C 378.361 255.571,378.706 254.681,378.983 254.253 C 380.114 252.505,379.848 249.520,378.516 249.014 C 377.455 248.610,374.903 249.162,374.903 249.795 C 374.903 249.968,374.165 250.403,373.263 250.763 C 372.360 251.122,371.358 251.652,371.036 251.941 C 370.714 252.230,369.592 252.658,368.542 252.894 C 367.493 253.129,366.426 253.494,366.171 253.705 C 365.917 253.916,363.651 254.622,361.136 255.274 C 351.477 257.777,340.757 258.684,331.660 257.769 C 320.902 256.687,319.186 256.440,316.988 255.653 C 315.820 255.235,314.170 254.767,313.320 254.614 C 312.471 254.461,311.168 254.033,310.425 253.663 C 309.681 253.293,308.521 252.871,307.845 252.725 C 307.170 252.579,306.418 252.220,306.175 251.927 C 305.931 251.634,304.877 251.110,303.831 250.762 C 302.786 250.415,301.931 249.988,301.931 249.814 C 301.931 249.576,299.678 248.536,299.460 248.673 C 299.438 248.687,299.046 248.849,298.588 249.033 M259.653 272.682 C 256.599 272.916,254.064 273.355,252.217 273.970 C 250.675 274.484,248.965 274.903,248.417 274.903 C 247.868 274.903,247.002 275.231,246.493 275.632 C 245.983 276.033,244.923 276.481,244.137 276.629 C 242.486 276.939,239.776 278.264,237.859 279.699 C 237.128 280.247,236.366 280.695,236.166 280.695 C 235.966 280.695,235.426 281.086,234.966 281.564 C 234.506 282.042,233.493 282.948,232.714 283.579 C 231.935 284.209,231.085 285.252,230.825 285.895 C 230.564 286.539,230.012 287.534,229.598 288.106 C 226.369 292.562,230.842 301.775,238.099 305.618 C 239.548 306.385,240.994 307.240,241.313 307.517 C 241.631 307.795,242.500 308.145,243.243 308.296 C 243.986 308.446,245.130 308.877,245.785 309.253 C 246.440 309.629,248.146 310.141,249.576 310.390 C 251.005 310.639,253.076 311.201,254.176 311.640 C 258.396 313.321,282.991 313.009,286.447 311.231 C 286.787 311.056,287.761 310.793,288.610 310.647 C 290.714 310.286,297.354 308.073,298.069 307.495 C 298.388 307.237,299.257 306.745,300.000 306.401 C 312.563 300.584,314.028 286.477,302.709 280.309 C 299.235 278.416,298.550 277.992,298.109 277.460 C 297.840 277.137,296.809 276.751,295.818 276.602 C 294.827 276.454,293.375 276.000,292.593 275.592 C 291.811 275.185,290.160 274.705,288.925 274.524 C 287.690 274.344,286.046 273.927,285.273 273.597 C 282.574 272.446,269.047 271.964,259.653 272.682 M372.587 278.410 C 370.569 279.447,368.224 280.479,367.375 280.704 C 366.525 280.929,364.966 281.460,363.911 281.883 C 357.592 284.419,342.697 286.036,333.061 285.231 C 323.084 284.398,322.718 284.487,323.744 287.502 C 324.097 288.536,324.484 291.250,324.605 293.534 C 324.879 298.682,324.343 298.329,332.637 298.816 C 343.100 299.430,352.067 298.779,356.475 297.085 C 357.276 296.777,358.408 296.525,358.990 296.525 C 359.573 296.525,360.656 296.200,361.398 295.803 C 362.139 295.406,363.473 294.958,364.362 294.807 C 365.251 294.657,366.203 294.263,366.478 293.933 C 366.753 293.602,367.675 293.002,368.527 292.600 C 375.017 289.542,379.648 283.911,379.584 279.154 C 379.540 275.864,377.885 275.688,372.587 278.410 M376.637 303.867 C 376.504 304.082,375.842 304.513,375.167 304.824 C 374.491 305.135,373.678 305.549,373.359 305.742 C 371.482 306.885,367.930 308.418,366.602 308.658 C 365.753 308.812,364.682 309.179,364.222 309.475 C 363.762 309.771,362.199 310.201,360.747 310.430 C 359.296 310.659,356.295 311.298,354.079 311.850 C 350.057 312.852,350.031 312.854,337.800 312.649 C 329.247 312.505,325.422 312.570,325.130 312.863 C 324.622 313.370,324.558 324.644,325.058 325.434 C 326.495 327.702,351.549 326.560,359.073 323.883 C 360.241 323.468,361.805 322.972,362.548 322.781 C 373.364 320.000,384.055 307.046,378.114 303.919 C 377.082 303.376,376.944 303.371,376.637 303.867 M24.035 313.139 C 23.346 313.416,23.167 313.792,23.173 314.949 C 23.185 317.306,24.268 324.270,24.769 325.203 C 25.022 325.676,25.461 327.166,25.745 328.515 C 26.028 329.865,26.582 331.429,26.976 331.990 C 27.370 332.552,27.811 333.663,27.956 334.459 C 28.102 335.256,28.382 335.907,28.579 335.907 C 28.776 335.907,29.186 336.385,29.490 336.969 C 29.794 337.553,30.406 338.448,30.851 338.959 C 31.296 339.469,31.660 340.133,31.660 340.433 C 31.660 341.108,38.388 348.080,39.747 348.814 C 40.290 349.107,41.579 349.793,42.611 350.338 C 43.644 350.883,44.686 351.491,44.928 351.689 C 45.169 351.886,46.149 352.248,47.104 352.492 C 48.060 352.735,49.537 353.206,50.386 353.538 C 53.194 354.634,60.336 354.418,62.972 353.157 C 64.160 352.589,65.465 352.124,65.871 352.124 C 67.852 352.124,75.339 345.880,77.768 342.202 C 78.302 341.395,79.247 340.039,79.869 339.189 C 82.446 335.669,85.978 327.671,87.625 321.622 C 88.001 320.241,88.594 318.439,88.942 317.617 C 89.687 315.857,89.764 313.857,89.112 313.205 C 88.545 312.638,25.440 312.575,24.035 313.139 M307.297 317.879 C 306.107 318.557,304.891 319.309,304.594 319.551 C 303.801 320.195,298.356 322.305,296.671 322.621 C 295.872 322.771,294.662 323.222,293.983 323.623 C 293.227 324.069,291.346 324.508,289.134 324.755 C 287.147 324.977,284.739 325.449,283.784 325.804 C 280.806 326.908,257.412 326.753,254.247 325.607 C 252.973 325.146,250.809 324.668,249.438 324.544 C 248.067 324.421,246.330 324.002,245.577 323.614 C 244.824 323.225,243.340 322.696,242.278 322.436 C 239.985 321.877,235.550 320.170,234.792 319.556 C 233.160 318.234,229.915 317.030,229.391 317.552 C 226.616 320.308,231.537 329.942,236.903 332.260 C 237.557 332.543,238.310 333.036,238.575 333.356 C 238.841 333.676,239.696 334.139,240.475 334.386 C 241.254 334.633,242.301 335.092,242.801 335.407 C 244.108 336.228,250.019 338.224,251.146 338.224 C 251.670 338.224,253.365 338.633,254.911 339.133 C 260.208 340.846,278.216 340.772,285.507 339.007 C 290.168 337.878,296.468 335.723,298.703 334.491 C 303.093 332.073,303.740 331.643,305.534 329.948 C 306.561 328.978,307.533 328.185,307.696 328.185 C 308.689 328.185,310.424 323.443,310.466 320.613 C 310.527 316.594,310.139 316.259,307.297 317.879 M229.138 344.809 C 228.247 346.250,228.962 351.108,230.365 353.145 C 232.076 355.630,236.760 360.232,237.578 360.232 C 237.901 360.232,238.681 360.666,239.312 361.197 C 239.943 361.728,240.610 362.162,240.795 362.162 C 240.980 362.162,241.770 362.505,242.551 362.923 C 243.332 363.342,244.806 363.888,245.827 364.138 C 246.848 364.387,248.198 364.850,248.827 365.167 C 249.456 365.483,251.541 365.996,253.460 366.307 C 255.380 366.617,257.819 367.052,258.880 367.272 C 261.611 367.838,274.615 368.061,277.819 367.596 C 279.295 367.383,282.239 366.966,284.363 366.671 C 288.307 366.123,294.492 364.229,296.666 362.903 C 297.332 362.497,298.086 362.164,298.342 362.164 C 298.598 362.163,299.410 361.771,300.146 361.293 C 300.882 360.816,302.410 359.861,303.542 359.171 C 305.953 357.702,307.893 355.795,308.584 354.214 C 308.855 353.595,309.365 352.654,309.718 352.124 C 310.141 351.486,310.403 350.125,310.489 348.119 C 310.669 343.871,310.355 343.740,305.947 346.221 C 304.056 347.284,302.075 348.274,301.544 348.420 C 301.014 348.566,299.450 349.098,298.069 349.604 C 293.609 351.237,289.056 352.456,286.486 352.705 C 285.106 352.839,283.108 353.226,282.046 353.565 C 279.184 354.479,259.925 354.387,256.564 353.443 C 255.290 353.085,252.683 352.579,250.772 352.319 C 248.765 352.045,246.651 351.496,245.768 351.019 C 244.927 350.565,243.710 350.192,243.065 350.192 C 242.420 350.191,241.342 349.855,240.669 349.444 C 239.996 349.034,238.693 348.476,237.773 348.203 C 236.853 347.930,235.511 347.311,234.792 346.827 C 234.072 346.342,233.317 345.946,233.115 345.946 C 232.913 345.946,232.306 345.598,231.766 345.174 C 230.693 344.330,229.533 344.169,229.138 344.809 " stroke="none" fill="none" fill-rule="evenodd"></path></g></svg>