<?xml version="1.0" standalone="no"?>
<!DOCTYPE svg PUBLIC "-//W3C//DTD SVG 20010904//EN"
 "http://www.w3.org/TR/2001/REC-SVG-20010904/DTD/svg10.dtd">
<svg version="1.0" xmlns="http://www.w3.org/2000/svg"
 width="201.000000pt" height="194.000000pt" viewBox="0 0 201.000000 194.000000"
 preserveAspectRatio="xMidYMid meet">
<g transform="translate(0.000000,194.000000) scale(0.100000,-0.100000)"
fill="#000000" stroke="none">
<path d="M0 970 l0 -970 1005 0 1005 0 0 970 0 970 -1005 0 -1005 0 0 -970z
m1679 896 c20 -18 21 -29 21 -181 0 -177 -6 -198 -49 -175 -20 10 -21 19 -21
155 l0 145 -550 0 -550 0 0 -702 c0 -772 -2 -791 -60 -894 l-30 -54 261 -2
c232 -3 263 -5 272 -20 8 -12 7 -21 -3 -33 -12 -14 -52 -15 -386 -13 l-372 3
-44 30 c-62 44 -103 111 -117 190 -13 74 -5 100 35 115 14 6 102 10 195 10
l169 0 0 684 c0 452 4 693 11 713 5 17 20 35 32 41 15 8 203 10 593 9 547 -2
573 -3 593 -21z m-774 -196 c3 -5 19 -10 34 -10 40 0 121 -81 121 -121 0 -15
5 -31 10 -34 6 -3 10 -19 10 -35 0 -16 -4 -32 -10 -35 -5 -3 -10 -18 -10 -33
-1 -28 -20 -62 -36 -63 -5 0 -19 -13 -32 -29 l-23 -29 23 -116 c20 -105 21
-119 7 -143 -18 -33 -68 -41 -106 -17 -22 15 -26 15 -42 1 -26 -23 -76 -20
-101 6 -25 27 -25 33 0 153 11 53 20 103 20 110 0 7 -18 31 -41 54 -83 83 -82
201 3 287 30 30 51 44 70 44 15 0 30 5 33 10 3 6 19 10 35 10 16 0 32 -4 35
-10z m913 -282 c62 -16 126 -60 145 -101 15 -31 17 -83 17 -466 0 -477 1 -472
-63 -528 -47 -41 -121 -63 -214 -63 l-73 0 0 -37 c0 -69 -54 -124 -152 -154
-143 -45 -337 2 -384 92 -18 35 -20 358 -3 392 39 77 126 117 249 117 l80 0 0
303 c0 299 0 305 23 348 50 94 216 137 375 97z"/>
<path d="M125 323 c10 -55 51 -120 87 -139 92 -48 178 3 222 131 l15 45 -166
0 -165 0 7 -37z"/>
<path d="M815 1590 c-51 -25 -75 -65 -75 -125 0 -42 5 -52 39 -86 34 -34 44
-39 86 -39 62 0 108 28 129 80 46 115 -70 225 -179 170z"/>
<path d="M845 1248 c-4 -15 -35 -167 -35 -176 0 -3 15 9 33 26 l33 32 24 -25
c13 -14 25 -23 27 -21 3 2 -3 43 -13 90 -15 79 -19 86 -41 86 -13 0 -25 -6
-28 -12z"/>
<path d="M1615 1321 c-153 -37 -152 -149 2 -181 137 -29 283 18 283 91 0 69
-162 119 -285 90z"/>
<path d="M1500 1082 c0 -51 122 -98 226 -89 98 9 174 48 174 89 0 22 6 22 -60
-3 -91 -35 -218 -29 -322 16 -14 5 -18 2 -18 -13z"/>
<path d="M1500 946 c0 -64 140 -110 265 -86 76 14 129 46 133 79 3 16 0 22
-10 18 -107 -45 -253 -49 -340 -9 l-48 21 0 -23z"/>
<path d="M1500 809 c0 -29 43 -65 97 -80 127 -35 303 9 303 76 l0 24 -47 -22
c-70 -31 -237 -32 -305 0 -47 22 -48 22 -48 2z"/>
<path d="M1500 669 c0 -25 35 -55 86 -75 61 -23 203 -16 260 13 36 19 70 63
58 76 -3 3 -28 -5 -57 -16 -74 -29 -221 -29 -294 0 -51 20 -53 20 -53 2z"/>
<path d="M1248 556 c-57 -21 -87 -44 -94 -70 -8 -34 10 -63 59 -88 60 -33 210
-33 279 -1 86 40 88 103 4 147 -51 26 -193 33 -248 12z"/>
<path d="M1840 528 c-32 -15 -67 -21 -127 -22 l-83 -1 0 -34 0 -34 83 5 c94 5
167 33 185 72 10 22 7 37 -7 35 -3 0 -26 -10 -51 -21z"/>
<path d="M1840 390 c-31 -13 -71 -19 -128 -19 l-83 -1 3 -32 c3 -32 4 -33 56
-36 98 -6 212 43 212 90 0 21 -2 21 -60 -2z"/>
<path d="M1500 323 c-48 -21 -68 -23 -155 -20 -58 2 -119 11 -145 20 -51 19
-57 16 -42 -17 35 -78 252 -99 360 -34 27 17 53 62 41 72 -2 1 -29 -8 -59 -21z"/>
<path d="M1150 191 c0 -23 36 -56 85 -77 61 -27 185 -24 253 6 52 22 72 43 72
74 0 12 -8 11 -47 -7 -69 -32 -246 -32 -315 0 -44 20 -48 21 -48 4z"/>
</g>
</svg>
