<?xml version="1.0" standalone="no"?><!DOCTYPE svg PUBLIC "-//W3C//DTD SVG 1.1//EN" "http://www.w3.org/Graphics/SVG/1.1/DTD/svg11.dtd"><svg t="1675580746664" class="icon" viewBox="0 0 1024 1024" version="1.1" xmlns="http://www.w3.org/2000/svg" p-id="2715" xmlns:xlink="http://www.w3.org/1999/xlink" width="200" height="200"><path d="M394.112 380.928h-97.536c-121.89696 0-221.056 98.66752-221.056 219.9552V632.83712a25.91744 25.91744 0 0 0 25.97376 25.85088h487.69024a25.92768 25.92768 0 0 0 25.97888-25.856v-31.9488c0-121.28256-99.15904-219.9552-221.05088-219.9552z m179.33824 236.30848H117.22752v-16.34816c0-98.42688 80.45568-178.50368 179.34848-178.50368h97.53088c98.88768 0 179.33824 80.0768 179.33824 178.50368v16.34816zM636.75392 742.4H61.87008C47.50848 742.4 35.84 732.53888 35.84 720.37888s11.65824-22.016 26.03008-22.016h574.88384c14.36672 0 26.02496 9.856 26.02496 22.016S651.13088 742.4 636.75392 742.4" p-id="2716"></path><path d="M962.0736 211.456H769.2288c-14.37184-0.03072-26.04544 6.46656-26.0864 20.8384 0.03584 14.37184 11.70944 20.87936 26.0864 20.84352h139.74528l-46.464 649.55392h-258.0736c5.248-11.44832 13.0816-34.12992 13.07648-46.72512v-39.552a26.02496 26.02496 0 0 0-26.09152-25.96864H101.61664a26.0352 26.0352 0 0 0-26.09664 25.96864v39.552c0 48.74752 39.85408 88.41728 88.85248 88.41728h712.15104a26.04544 26.04544 0 0 0 26.03008-24.06912l48.50176-667.17696h5.90336c14.37696 0.03072 31.17568-6.4768 31.2064-20.85376-0.0512-14.3616-11.7248-20.85888-26.09152-20.82816z m-386.50368 644.51584c0 25.76384-21.04832 46.72512-46.9248 46.72512H164.3776c-25.86624 0-46.91456-20.96128-46.91456-46.72512v-23.8336h458.10176v23.8336z" p-id="2717"></path><path d="M823.95136 71.71072a1.4848 1.4848 0 0 1-0.04096-0.10752c-4.83328-13.71648-19.87584-15.7952-33.59232-10.96192l-84.98688 26.73664a26.4704 26.4704 0 0 0-17.60256 24.97536V211.456H450.7136c-14.32064-0.04608-25.96352 6.40512-26.0096 20.72576v0.00512c0.0512 14.32064 16.80896 20.77184 31.1296 20.73088h5.888l6.0928 88.20224c1.08544 14.27968 8.4224 24.98048 22.70208 23.90016 14.27456-0.98816 19.9168-13.3632 18.92864-27.63264v-0.03072l-5.81632-84.43904h183.68512v403.72224c0.04096 14.32064 6.55872 25.89696 20.87424 25.86112h0.01024c14.32576 0.04096 20.8384-11.53536 20.88448-25.85088v-0.01024l1.1264-530.65728L807.8336 100.352c13.75232-4.89984 20.94592-14.8736 16.11776-28.64128z" p-id="2718"></path></svg>