<?xml version="1.0" standalone="no"?><!DOCTYPE svg PUBLIC "-//W3C//DTD SVG 1.1//EN" "http://www.w3.org/Graphics/SVG/1.1/DTD/svg11.dtd"><svg t="1675771571929" class="icon" viewBox="0 0 1052 1024" version="1.1" xmlns="http://www.w3.org/2000/svg" p-id="13810" xmlns:xlink="http://www.w3.org/1999/xlink" width="205.46875" height="200"><path d="M933.973333 384a137.813333 137.813333 0 0 0 28.444445-83.768889V138.951111A139.093333 139.093333 0 0 0 823.466667 0H228.977778a139.093333 139.093333 0 0 0-138.951111 138.951111v160.568889a137.813333 137.813333 0 0 0 28.444444 83.768889A138.951111 138.951111 0 0 0 0 520.533333v244.764445a138.951111 138.951111 0 0 0 81.351111 126.293333C88.177778 965.973333 142.222222 1024 208.071111 1024c61.866667 0 113.777778-51.626667 125.013333-119.751111h343.466667C687.928889 972.373333 739.555556 1024 801.422222 1024s113.777778-51.911111 125.155556-120.462222A139.093333 139.093333 0 0 0 1052.444444 765.297778V520.533333a138.951111 138.951111 0 0 0-118.471111-136.533333zM146.915556 138.951111A82.204444 82.204444 0 0 1 228.977778 56.888889h594.488889a82.204444 82.204444 0 0 1 82.062222 82.062222v160.568889a82.204444 82.204444 0 0 1-82.062222 82.062222H228.977778a82.204444 82.204444 0 0 1-82.062222-82.062222zM208.071111 967.111111c-31.146667 0-57.742222-26.453333-66.986667-62.862222h133.973334c-9.244444 36.408889-35.697778 62.862222-66.986667 62.862222z m593.351111 0c-31.146667 0-57.742222-26.453333-66.986666-62.862222h134.115555c-9.244444 36.408889-35.84 62.862222-67.128889 62.862222zM995.555556 765.297778a82.204444 82.204444 0 0 1-82.062223 82.062222H148.48a72.817778 72.817778 0 0 1-28.444444-5.831111l-33.28-12.657778A81.92 81.92 0 0 1 56.888889 765.297778V520.533333a82.062222 82.062222 0 0 1 82.062222-82.062222h774.542222A82.062222 82.062222 0 0 1 995.555556 520.533333z" p-id="13811"></path><path d="M211.626667 513.706667c-48.497778 0-88.035556 45.084444-88.035556 100.551111s39.537778 100.408889 88.035556 100.408889 88.035556-45.084444 88.035555-100.408889-39.537778-100.551111-88.035555-100.551111z m0 144.071111c-16.924444 0-31.146667-19.911111-31.146667-43.52s14.222222-43.662222 31.146667-43.662222 31.146667 19.911111 31.146666 43.662222-14.222222 43.52-31.146666 43.52zM840.817778 513.706667c-48.497778 0-88.035556 45.084444-88.035556 100.551111s39.537778 100.408889 88.035556 100.408889 88.035556-45.084444 88.035555-100.408889-39.537778-100.551111-88.035555-100.551111z m0 144.071111c-16.924444 0-31.146667-19.911111-31.146667-43.52s14.222222-43.662222 31.146667-43.662222 31.146667 19.911111 31.146666 43.662222-14.222222 43.52-31.146666 43.52zM654.222222 657.777778H398.222222a28.444444 28.444444 0 0 0 0 56.888889h256a28.444444 28.444444 0 0 0 0-56.888889z" p-id="13812"></path></svg>