<?xml version="1.0" standalone="no"?><!DOCTYPE svg PUBLIC "-//W3C//DTD SVG 1.1//EN" "http://www.w3.org/Graphics/SVG/1.1/DTD/svg11.dtd"><svg t="1675771653126" class="icon" viewBox="0 0 1024 1024" version="1.1" xmlns="http://www.w3.org/2000/svg" p-id="3442" xmlns:xlink="http://www.w3.org/1999/xlink" width="200" height="200"><path d="M693.584 548.256c-6.064 8.192-13.2 15.2-20.896 20.848-17.696 23.68-42.976 35.952-65.392 28.592-30.976-10.144-44.56-53.488-30.368-96.848a108.24 108.24 0 0 1 19.296-35.072l52.416-123.12 21.616-50.768c-64.976-66-166-106.048-303.056-84.176C66.56 255.68-26.176 623.488 168.912 796.192c182.576 161.632 278.336 51.536 347.536-70.736 7.824-13.84 26.384-21.936 42.192-20.256 50.336 5.344 153.424-0.304 189.152-126.496 10-35.36 12.256-74.208 6.976-113.104l-61.184 82.656z m-449.504-158.256a62.368 62.368 0 1 1 0 124.72 62.368 62.368 0 0 1 0-124.72z m-35.984 285.44a62.368 62.368 0 1 1 0-124.736 62.368 62.368 0 0 1 0 124.736z m122.336 124.736a62.368 62.368 0 1 1 0-124.72 62.368 62.368 0 0 1 0 124.72zM380.8 406.8a62.368 62.368 0 1 1 0-124.736 62.368 62.368 0 0 1 0 124.736zM787.44 176.128c-40.368 2.608-70.656 41.696-70.656 41.696l0.336 0.176a77.376 77.376 0 0 0 4.624 114.336 77.376 77.376 0 0 0 109.024-9.552 76.992 76.992 0 0 0 17.456-40.176l0.032 0.016c14.864-70.352-15.664-117.84-15.664-117.84s-4.768 8.736-45.152 11.344z" p-id="3443"></path><path d="M609.152 570.016c15.216 8.848 40.496-1.472 56.48-23.056l74.432-100.544c-34.672-7.968-65.744-29.456-85.744-46.24a308.08 308.08 0 0 1-5.28-4.544l-48.368 113.632c-10.512 24.688-6.72 51.904 8.48 60.752zM714.368 341.12a88.88 88.88 0 0 1-26.24-37.28l-22.224 52.208c19.616 19.536 62.672 53.52 101.872 52.96l40.592-54.816a89.6 89.6 0 0 1-94-13.072z" p-id="3444"></path></svg>