<?xml version="1.0" standalone="no"?><!DOCTYPE svg PUBLIC "-//W3C//DTD SVG 1.1//EN" "http://www.w3.org/Graphics/SVG/1.1/DTD/svg11.dtd"><svg t="1675771781221" class="icon" viewBox="0 0 1187 1024" version="1.1" xmlns="http://www.w3.org/2000/svg" p-id="10041" xmlns:xlink="http://www.w3.org/1999/xlink" width="231.8359375" height="200"><path d="M1048.627816 54.383463c-200.73803-139.010469-390.85892 32.345242-390.85892 32.345242l-6.419667 6.913487 228.145068 246.910247a127.158777 127.158777 0 0 1 14.567704 152.590532l135.306815 144.195583c21.975012-24.691025 39.99946-46.912947 53.332614-64.690484 9.87641-13.086243 19.505909-26.172486 29.135409-39.505639 77.776728-107.159047 137.529007-339.254678-63.209023-478.265147zM771.84143 562.52475h-4.197475a140.49193 140.49193 0 0 1-101.233201-46.912947l-154.812724-172.837172a44.443844 44.443844 0 0 1-10.12332-43.456204 43.209293 43.209293 0 0 1 32.345242-28.394678 42.715473 42.715473 0 0 1 41.727832 14.073884l135.306815 150.61525 26.666306 32.839063a49.382049 49.382049 0 0 0 65.678126 7.654218 51.851152 51.851152 0 0 0 17.530627-64.443575 52.344972 52.344972 0 0 1-2.716012-5.185115l-1.234552-3.209833-1.975282-2.469102-2.469102-2.962923-1.728372-1.728372-49.382049-54.320254-236.786926-257.280477c-22.715743-19.258999-200.73803-159.257109-388.389817-30.12305-200.73803 139.257379-140.73884 370.365369-63.702844 478.265147l28.888499 39.75255c66.171946 88.887689 263.206322 285.922065 386.908356 407.154996a148.146148 148.146148 0 0 0 205.676235 1.975282l-235.799285-251.107721a44.443844 44.443844 0 0 1 1.481461-62.221382 42.962383 42.962383 0 0 1 61.233741 1.481462l235.552375 250.6139c24.691025-24.691025 51.604241-51.357331 78.270548-78.270548l-228.885798-243.453503a44.443844 44.443844 0 0 1 3.456743-59.99919 42.715473 42.715473 0 0 1 59.258459 0l227.404337 241.725131c24.691025-26.913217 51.110421-53.085703 74.073074-78.270548l-141.726481-150.86216a139.010469 139.010469 0 0 1-56.542447 11.851691z" fill="#333333" p-id="10042"></path></svg>