<?xml version="1.0" standalone="no"?><!DOCTYPE svg PUBLIC "-//W3C//DTD SVG 1.1//EN" "http://www.w3.org/Graphics/SVG/1.1/DTD/svg11.dtd"><svg t="1675771880655" class="icon" viewBox="0 0 1024 1024" version="1.1" xmlns="http://www.w3.org/2000/svg" p-id="12803" xmlns:xlink="http://www.w3.org/1999/xlink" width="200" height="200"><path d="M899.428332 219.960691c0-14.872732-11.900028-26.955932-26.694989-27.273157-0.390903-0.13303-0.615007-0.201591-0.615007-0.201591l-202.833615 21.404496c0 0-0.759293 0.056282-1.992377 0.056282-2.820232 0-8.108678-0.288572-12.429077-2.187829-6.208399-2.729158-10.394744-8.077979-10.394744-8.077979L531.569196 72.760141l-0.092098-0.001023c-4.990664-5.475711-12.178367-8.911974-20.172435-8.911974-7.608282 0-14.486946 3.116991-19.435655 8.138354l-0.276293-0.004093L377.031541 204.051349c0 0-4.325515 5.185093-10.131755 7.961322-3.458775 1.653663-8.06263 1.987261-11.219529 1.987261-2.14485 0-3.621481-0.153496-3.621481-0.153496L149.64267 192.486966c0 0-0.223081 0.068562-0.61296 0.202615-14.794961 0.316202-26.693965 12.400425-26.693965 27.273157 0 0.098237 0.00614 0.195451 0.00614 0.292666-0.267083 64.383356 7.202029 218.378659 76.986395 343.589382 90.707908 162.751734 227.993644 210.755028 282.328134 227.142254l0 168.170141 59.72015 0L541.376563 790.984992c54.333466-16.388249 190.350302-64.390519 281.059234-227.143277 69.786413-125.214816 77.253478-279.218306 76.982302-343.597569C899.423215 220.150002 899.428332 220.056881 899.428332 219.960691L899.428332 219.960691zM778.18599 540.661783c-34.646078 62.163805-79.233576 111.272269-132.525316 145.95928-45.393863 29.550013-86.705757 42.007743-108.900246 48.702212-11.494799 3.466961-20.553105 5.573949-25.263383 16.038278-4.708232-10.464329-13.765515-12.571317-25.260314-16.038278-22.410406-6.757914-64.122413-19.339464-109.61963-48.76668-53.671387-34.716686-98.432847-83.800591-133.040039-145.893788-56.497759-101.372805-67.791989-225.874377-69.437465-292.038286 2.556219-1.63422 4.810562-3.693112 6.66991-6.078439l171.506119 18.098193c0.017396 0.002047 0.035816 0.00307 0.053212 0.005117 1.061169 0.110517 3.937682 0.36839 7.718799 0.36839 10.654664 0 20.204158-1.984191 28.385491-5.897314 11.855002-5.67014 19.931958-14.158465 23.150256-17.940604l95.340415-109.915365c1.409093 0.232291 2.855024 0.356111 4.328585 0.356111 1.412163 0 2.793626-0.11154 4.146437-0.324388l94.133937 109.158119c3.668553 4.460592 12.095479 13.332656 24.892947 18.957771 10.438747 4.586458 21.196765 5.550413 28.383444 5.550413 2.321882 0 4.051269-0.100284 4.876054-0.159636 0.438998-0.031722 0.876973-0.072655 1.314948-0.116657l171.912371-18.142196c1.858324 2.387373 4.113691 4.445242 6.668886 6.078439C845.977979 314.786383 834.683748 439.290001 778.18599 540.661783L778.18599 540.661783z" fill="#272536" p-id="12804"></path><path d="M429.618223 942.094572c-8.402367 0-16.561188-4.394077-21.008476-12.193717-30.724769-53.79316-80.70816-123.07713-144.166447-147.683551-25.814945-9.995655-60.58075-11.558244-90.731444-4.117784-18.672268 4.614088-51.900044 16.968463-64.833611 47.752584-5.161556 12.301164-19.305695 18.10024-31.606859 12.93766-12.304234-5.166673-18.09717-19.305695-12.933567-31.611975 15.625886-37.260625 50.363038-64.22679 97.78714-75.954903 39.873126-9.859555 84.634586-7.630794 119.756501 5.958712 34.490535 13.374612 67.991534 37.621852 99.626022 72.114434 24.328082 26.498514 47.561225 59.039651 69.062935 96.65741 6.619768 11.589966 2.580778 26.338878-9.008164 32.955576C437.77602 941.051823 433.655166 942.094572 429.618223 942.094572L429.618223 942.094572 429.618223 942.094572z" fill="#272536" p-id="12805"></path><path d="M596.190983 942.094572c-4.015454 0-8.060583-1.030469-11.802814-3.14769-11.453866-6.53995-15.443737-21.113877-8.901741-32.567743 21.249977-37.202297 44.206828-69.334111 68.25043-95.520517 31.263028-34.086329 64.371076-58.049091 98.42773-71.266114 34.710546-13.43294 78.970586-15.631002 118.375038-5.888104 46.865377 11.587919 81.196277 38.237883 96.637967 75.060533 5.099135 12.159948-0.62524 26.13217-12.783141 31.238468-12.157901 5.101181-26.131147-0.627287-31.234375-12.785188-12.780071-30.420847-45.617967-42.63196-64.072271-47.188742-29.795607-7.353478-64.151066-5.809309-89.662089 4.069689-62.714344 24.315802-112.104217 92.783173-142.469805 145.945977C612.555695 937.752684 604.496136 942.094572 596.190983 942.094572L596.190983 942.094572 596.190983 942.094572z" fill="#272536" p-id="12806"></path></svg>