<?xml version="1.0" standalone="no"?><!DOCTYPE svg PUBLIC "-//W3C//DTD SVG 1.1//EN" "http://www.w3.org/Graphics/SVG/1.1/DTD/svg11.dtd"><svg t="1677550541596" class="icon" viewBox="0 0 1024 1024" version="1.1" xmlns="http://www.w3.org/2000/svg" p-id="4046" xmlns:xlink="http://www.w3.org/1999/xlink" width="200" height="200"><path d="M637.27616 575.8976a318.38208 318.38208 0 0 0-79.2576-40.8576 199.55712 199.55712 0 0 0 96.0512-170.5984c0-110.08-89.55904-199.63904-199.63904-199.63904-110.12096 0-199.76192 89.55904-199.76192 199.7824a199.2704 199.2704 0 0 0 30.3104 105.65632 200.92928 200.92928 0 0 0 66.60096 65.4336 317.0304 317.0304 0 0 0-80.6912 41.28768 324.4032 324.4032 0 0 0-70.98368 68.9152 314.0608 314.0608 0 0 0-63.42656 189.952c0 12.84096 10.52672 23.36768 23.3472 23.36768l588.20608-0.9216c12.84096 0 23.3472-10.52672 23.3472-23.3472a313.5488 313.5488 0 0 0-63.32416-190.0544 313.67168 313.67168 0 0 0-70.77888-68.99712z" fill="#000000" p-id="4047"></path><path d="M878.67392 615.48544c-30.1056-43.23328-70.53312-75.8784-117.5552-94.43328a169.7792 169.7792 0 0 0 50.87232-56.85248 178.7904 178.7904 0 0 0 22.44608-86.9376c0-95.27296-73.78944-172.70784-164.37248-172.70784-12.82048 0-23.3472 10.52672-23.3472 23.3472 0 12.86144 13.06624 29.40928 23.1424 37.45792 45.99808 37.5808 75.63264 142.5408 21.7088 203.776-24.12544 27.40224-45.7728 31.49824-44.8512 57.5488v0.16384c0 12.84096 11.75552 17.94048 23.3472 23.3472 87.40864 41.55392 137.76896 120.832 157.63456 231.424 4.7104 26.46016 49.11104 18.49344 77.4144 17.55136 12.84096-0.3072 23.3472-10.50624 23.3472-23.3472-0.14336-58.01984-17.3056-113.39776-49.78688-160.33792z" fill="#000000" p-id="4048"></path></svg>