<?xml version="1.0" standalone="no"?><!DOCTYPE svg PUBLIC "-//W3C//DTD SVG 1.1//EN" "http://www.w3.org/Graphics/SVG/1.1/DTD/svg11.dtd"><svg t="1675771718091" class="icon" viewBox="0 0 1052 1024" version="1.1" xmlns="http://www.w3.org/2000/svg" p-id="7156" xmlns:xlink="http://www.w3.org/1999/xlink" width="205.46875" height="200"><path d="M1020.863465 393.333901A148.88481 148.88481 0 0 0 981.189289 358.067967a467.273624 467.273624 0 0 0-908.666602 0 148.88481 148.88481 0 0 0-40.385183 35.265934 145.045373 145.045373 0 0 0-28.155866 123.857372L97.976728 910.235795a147.747199 147.747199 0 0 0 144.76097 113.761077h566.814566a147.8894 147.8894 0 0 0 144.760971-113.761077l93.99509-393.613327a145.045373 145.045373 0 0 0-27.44486-123.288567z m-884.207971-56.880539a410.961891 410.961891 0 0 1 778.978975 0H136.655494z m856.336507 167.513186l-93.99509 393.613327A91.293264 91.293264 0 0 1 809.552264 967.116333H242.737698a91.151063 91.151063 0 0 1-89.444647-69.536458L59.297961 503.966548a88.307036 88.307036 0 0 1 16.779759-75.366713 92.146472 92.146472 0 0 1 72.80709-34.981531h754.520343a92.288674 92.288674 0 0 1 72.807089 34.981531 88.307036 88.307036 0 0 1 16.779759 75.366713z" p-id="7157"></path><path d="M327.063096 535.535247a28.440269 28.440269 0 0 0-28.440269 28.440269v199.081885a28.440269 28.440269 0 0 0 56.880539 0v-199.081885a28.440269 28.440269 0 0 0-28.44027-28.440269zM526.144981 535.535247a28.440269 28.440269 0 0 0-28.440269 28.440269v199.081885a28.440269 28.440269 0 1 0 56.880538 0v-199.081885a28.440269 28.440269 0 0 0-28.440269-28.440269zM737.31398 535.535247a28.440269 28.440269 0 0 0-28.440269 28.440269v199.081885a28.440269 28.440269 0 0 0 56.880539 0v-199.081885a28.440269 28.440269 0 0 0-28.44027-28.440269z" p-id="7158"></path></svg>