<?xml version="1.0" standalone="no"?><!DOCTYPE svg PUBLIC "-//W3C//DTD SVG 1.1//EN" "http://www.w3.org/Graphics/SVG/1.1/DTD/svg11.dtd"><svg t="1675771511625" class="icon" viewBox="0 0 1175 1024" version="1.1" xmlns="http://www.w3.org/2000/svg" p-id="9136" xmlns:xlink="http://www.w3.org/1999/xlink" width="229.4921875" height="200"><path d="M910.126369 766.921651H282.09604c-19.841618 0-36.232519-16.390901-36.232519-36.232519v-445.142375c0-19.841618 16.390901-36.232519 36.232519-36.232519h438.240944c6.901432 0 12.940185 6.038753 12.940185 12.940185s-6.038753 12.940185-12.940185 12.940185h-393.381634c-31.056445 0-55.211457 25.017692-55.211458 55.211458v355.423757c0 30.193766 25.017692 55.211457 55.211458 55.211458h538.31171c31.056445 0 55.211457-25.017692 55.211457-55.211458v-355.423757c0-30.193766-25.017692-55.211457-55.211457-55.211458-6.901432 0-12.940185-6.038753-12.940186-12.940185s6.038753-12.940185 12.940186-12.940185h44.859309c19.841618 0 36.232519 16.390901 36.232519 36.232519v445.142375c0 19.841618-16.390901 36.232519-36.232519 36.232519z" fill="#2C2F35" p-id="9137"></path><path d="M788.488627 262.254423m-12.940186 0a12.940185 12.940185 0 1 0 25.880371 0 12.940185 12.940185 0 1 0-25.880371 0Z" fill="#2C2F35" p-id="9138"></path><path d="M1017.098568 851.464195h-854.914912c-6.901432 0-12.940185-6.038753-12.940185-12.940185s6.038753-12.940185 12.940185-12.940185h854.914912c6.901432 0 12.940185 6.038753 12.940185 12.940185 0 7.764111-6.038753 12.940185-12.940185 12.940185zM838.52401 703.083404h-485.68829c-25.880371 0-46.584667-20.704297-46.584667-46.584668v-296.761584c0-25.880371 20.704297-46.584667 46.584667-46.584667h485.68829c25.880371 0 46.584667 20.704297 46.584667 46.584667v296.761584c0.862679 25.880371-20.704297 46.584667-46.584667 46.584668z m-433.927548-373.540017c-44.859309 0-81.091828 36.232519-81.091828 81.091828v194.10278c0 44.859309 36.232519 81.091828 81.091828 81.091828h383.029486c44.859309 0 81.091828-36.232519 81.091828-81.091828v-193.240101c0-44.859309-36.232519-81.091828-81.091828-81.091828h-383.029486v-0.862679z" fill="#D53124" p-id="9139"></path></svg>