<?xml version="1.0" standalone="no"?><!DOCTYPE svg PUBLIC "-//W3C//DTD SVG 1.1//EN" "http://www.w3.org/Graphics/SVG/1.1/DTD/svg11.dtd"><svg t="1677550502139" class="icon" viewBox="0 0 1024 1024" version="1.1" xmlns="http://www.w3.org/2000/svg" p-id="3832" xmlns:xlink="http://www.w3.org/1999/xlink" width="200" height="200"><path d="M884.1 417.8C841.5 248.4 688.9 128 512 128c-177 0-329.6 120.6-372.1 290.1C96.6 427.4 64 466 64 512s32.6 84.6 75.9 93.9C182.4 775.4 335 896 512 896s329.6-120.6 372.1-290.1C927.4 596.6 960 558 960 512 960 463.3 929.1 426.3 884.1 417.8zM864.6 544C864.5 544 864.5 544 864.6 544c-0.6-0.1-3.1-0.4-3.6-0.4-16.9-1.6-31.5 9.8-34.5 26.1C798.8 721.7 666.5 832 512 832c-154.6 0-286.8-110.3-314.5-262.3-2.8-15.3-18.7-25.8-34.3-25.8-1 0-2.1 0-3.2 0.1-17.6 0-32-14.4-32-32 0-17.6 14.3-32 31.4-32 0 0 0.1 0 0.1 0 0.5 0.1 3 0.4 3.5 0.4 16.7 1.7 31.5-9.8 34.5-26.1 17.8-97.6 78.8-177.8 161.1-222.9 17 67.1 68.1 155.6 182.4 161.8 0.6 0 1.2 0 1.8 0 14.2 0 26.9-9.5 30.8-23.4 0.1-0.5 14.9-49.7 52.6-60.5 17-4.9 26.8-22.6 22-39.6-4.9-17-22.7-26.8-39.6-22-47 13.4-73.3 52.1-86.3 78.6-73.9-15.9-96.9-87.2-103.7-120.3 29.7-9.1 61-14.2 93.4-14.2 154.5 0 286.8 110.3 314.5 262.3 3 16.3 17.6 27.5 34.5 26.1 0.1 0 2.7-0.3 3.8-0.5 12 0.2 31.2 4.8 31.2 32C896 529.6 881.7 544 864.6 544z" p-id="3833"></path><path d="M646.4 480m-38.4 0a38.4 38.4 0 1 0 76.8 0 38.4 38.4 0 1 0-76.8 0Z" p-id="3834"></path><path d="M377.6 480m-38.4 0a38.4 38.4 0 1 0 76.8 0 38.4 38.4 0 1 0-76.8 0Z" p-id="3835"></path><path d="M584.5 618.3c-0.9 0.9-21.7 21.7-72.5 21.7-49.8 0-70.8-20-72.4-21.6-11.7-12.8-31.5-14-44.7-2.5-13.3 11.6-14.6 31.8-3 45.2 3.8 4.4 39.9 42.9 120.1 42.9 80.2 0 116.2-38.5 120.1-42.9 11.4-13.1 10-32.5-2.7-44.3C616.7 605.1 596.6 605.9 584.5 618.3z" p-id="3836"></path></svg>